<mxfile host="65bd71144e">
    <diagram id="Id8QEfdz1PkLzNvXvWUs" name="Page-1">
        <mxGraphModel dx="4196" dy="1368" grid="1" gridSize="10" guides="1" tooltips="1" connect="1" arrows="1" fold="1" page="1" pageScale="1" pageWidth="850" pageHeight="1100" math="0" shadow="0">
            <root>
                <mxCell id="0"/>
                <mxCell id="1" parent="0"/>
                <mxCell id="493" value="" style="rounded=0;whiteSpace=wrap;html=1;fontSize=10;" vertex="1" parent="1">
                    <mxGeometry x="-1310" y="190" width="3890" height="1300" as="geometry"/>
                </mxCell>
                <mxCell id="2" value="&lt;font style=&quot;font-size: 25px;&quot;&gt;&quot;pacektizer&quot;&lt;br style=&quot;font-size: 25px;&quot;&gt;tcp/ip to/from s/c&lt;/font&gt;" style="rounded=1;whiteSpace=wrap;html=1;fontSize=25;" vertex="1" parent="1">
                    <mxGeometry x="-700" y="590" width="270" height="120" as="geometry"/>
                </mxCell>
                <mxCell id="3" value="s/c network" style="rounded=0;whiteSpace=wrap;html=1;fontSize=25;" vertex="1" parent="1">
                    <mxGeometry x="147.5" y="400" width="155" height="90" as="geometry"/>
                </mxCell>
                <mxCell id="4" value="" style="fontColor=#0066CC;verticalAlign=top;verticalLabelPosition=bottom;labelPosition=center;align=center;html=1;outlineConnect=0;fillColor=#CCCCCC;strokeColor=#6881B3;gradientColor=none;gradientDirection=north;strokeWidth=2;shape=mxgraph.networks.satellite_dish;fontSize=15;" vertex="1" parent="1">
                    <mxGeometry x="-470" y="490" width="90" height="100" as="geometry"/>
                </mxCell>
                <mxCell id="5" value="" style="fontColor=#0066CC;verticalAlign=top;verticalLabelPosition=bottom;labelPosition=center;align=center;html=1;outlineConnect=0;fillColor=#CCCCCC;strokeColor=#6881B3;gradientColor=none;gradientDirection=north;strokeWidth=2;shape=mxgraph.networks.satellite;fontSize=15;" vertex="1" parent="1">
                    <mxGeometry x="20" y="310" width="100" height="100" as="geometry"/>
                </mxCell>
                <mxCell id="6" value="&lt;font style=&quot;font-size: 25px;&quot;&gt;&quot;pacektizer&quot;&lt;br style=&quot;font-size: 25px;&quot;&gt;tcp/ip to/from ground&lt;/font&gt;" style="rounded=1;whiteSpace=wrap;html=1;fontSize=25;" vertex="1" parent="1">
                    <mxGeometry x="90" y="230" width="270" height="120" as="geometry"/>
                </mxCell>
                <mxCell id="7" value="groundnetwork" style="rounded=0;whiteSpace=wrap;html=1;fontSize=25;" vertex="1" parent="1">
                    <mxGeometry x="-660" y="740" width="190" height="90" as="geometry"/>
                </mxCell>
                <mxCell id="328" value="" style="group" vertex="1" connectable="0" parent="1">
                    <mxGeometry x="-1270" y="890" width="810" height="460" as="geometry"/>
                </mxCell>
                <mxCell id="329" value="" style="rounded=1;whiteSpace=wrap;html=1;" vertex="1" parent="328">
                    <mxGeometry y="40" width="810" height="420" as="geometry"/>
                </mxCell>
                <mxCell id="330" value="&lt;font style=&quot;font-size: 26px;&quot;&gt;network&lt;/font&gt;&lt;div&gt;&lt;font style=&quot;font-size: 26px;&quot;&gt;interface&lt;/font&gt;&lt;/div&gt;" style="rounded=1;whiteSpace=wrap;html=1;" vertex="1" parent="328">
                    <mxGeometry x="360" y="370" width="170" height="70" as="geometry"/>
                </mxCell>
                <mxCell id="331" value="&lt;font color=&quot;#ff00ff&quot; style=&quot;font-size: 26px;&quot;&gt;INDI Server&lt;/font&gt;" style="shape=process;whiteSpace=wrap;html=1;backgroundOutline=1;strokeColor=#FF00FF;" vertex="1" parent="328">
                    <mxGeometry x="60" y="275" width="240" height="60" as="geometry"/>
                </mxCell>
                <mxCell id="332" value="&lt;font style=&quot;font-size: 26px;&quot; color=&quot;#008700&quot;&gt;milkzmq client&lt;/font&gt;" style="shape=process;whiteSpace=wrap;html=1;backgroundOutline=1;strokeColor=#008700;strokeWidth=2;" vertex="1" parent="328">
                    <mxGeometry x="520" y="270" width="250" height="70" as="geometry"/>
                </mxCell>
                <mxCell id="333" value="&lt;font color=&quot;#008700&quot; style=&quot;font-size: 26px;&quot;&gt;shared memory&lt;/font&gt;" style="ellipse;whiteSpace=wrap;html=1;strokeWidth=2;strokeColor=#008700;" vertex="1" parent="328">
                    <mxGeometry x="505" y="150" width="280" height="80" as="geometry"/>
                </mxCell>
                <mxCell id="334" value="&lt;font style=&quot;font-size: 26px;&quot;&gt;Operator Computer&lt;/font&gt;" style="text;html=1;align=center;verticalAlign=middle;whiteSpace=wrap;rounded=0;" vertex="1" parent="328">
                    <mxGeometry x="30" width="260" height="30" as="geometry"/>
                </mxCell>
                <mxCell id="335" value="" style="endArrow=classic;startArrow=classic;html=1;rounded=0;exitX=1;exitY=0.5;exitDx=0;exitDy=0;entryX=0.5;entryY=1;entryDx=0;entryDy=0;" edge="1" parent="328" source="330" target="332">
                    <mxGeometry width="50" height="50" relative="1" as="geometry">
                        <mxPoint x="455" y="520" as="sourcePoint"/>
                        <mxPoint x="455" y="450" as="targetPoint"/>
                        <Array as="points">
                            <mxPoint x="645" y="405"/>
                        </Array>
                    </mxGeometry>
                </mxCell>
                <mxCell id="336" value="" style="endArrow=classic;startArrow=classic;html=1;rounded=0;exitX=0;exitY=0.5;exitDx=0;exitDy=0;entryX=0.5;entryY=1;entryDx=0;entryDy=0;" edge="1" parent="328" source="330" target="331">
                    <mxGeometry width="50" height="50" relative="1" as="geometry">
                        <mxPoint x="540" y="415" as="sourcePoint"/>
                        <mxPoint x="655" y="350" as="targetPoint"/>
                        <Array as="points">
                            <mxPoint x="180" y="405"/>
                        </Array>
                    </mxGeometry>
                </mxCell>
                <mxCell id="337" value="" style="endArrow=classic;startArrow=none;html=1;rounded=0;entryX=0.5;entryY=1;entryDx=0;entryDy=0;strokeColor=#00CC00;startFill=0;" edge="1" parent="328" source="332" target="333">
                    <mxGeometry width="50" height="50" relative="1" as="geometry">
                        <mxPoint x="790" y="590" as="sourcePoint"/>
                        <mxPoint x="840" y="540" as="targetPoint"/>
                    </mxGeometry>
                </mxCell>
                <mxCell id="338" value="&lt;font style=&quot;font-size: 26px;&quot;&gt;GUI&lt;/font&gt;" style="rounded=1;whiteSpace=wrap;html=1;" vertex="1" parent="328">
                    <mxGeometry x="400" y="60" width="120" height="60" as="geometry"/>
                </mxCell>
                <mxCell id="339" value="&lt;font style=&quot;font-size: 26px;&quot;&gt;script&lt;/font&gt;" style="shape=process;whiteSpace=wrap;html=1;backgroundOutline=1;" vertex="1" parent="328">
                    <mxGeometry x="145" y="60" width="120" height="60" as="geometry"/>
                </mxCell>
                <mxCell id="340" value="" style="endArrow=classic;startArrow=none;html=1;rounded=0;entryX=0.5;entryY=1;entryDx=0;entryDy=0;strokeColor=#00CC00;startFill=0;exitX=0;exitY=0.5;exitDx=0;exitDy=0;fillColor=#008a00;strokeWidth=2;" edge="1" parent="328" source="333">
                    <mxGeometry width="50" height="50" relative="1" as="geometry">
                        <mxPoint x="500" y="190" as="sourcePoint"/>
                        <mxPoint x="460" y="120" as="targetPoint"/>
                        <Array as="points">
                            <mxPoint x="460" y="190"/>
                        </Array>
                    </mxGeometry>
                </mxCell>
                <mxCell id="341" value="" style="endArrow=classic;startArrow=none;html=1;rounded=0;entryX=0.5;entryY=1;entryDx=0;entryDy=0;strokeColor=#00CC00;startFill=0;exitX=0;exitY=0.5;exitDx=0;exitDy=0;strokeWidth=2;" edge="1" parent="328" source="333" target="339">
                    <mxGeometry width="50" height="50" relative="1" as="geometry">
                        <mxPoint x="500" y="190" as="sourcePoint"/>
                        <mxPoint x="470" y="130" as="targetPoint"/>
                        <Array as="points">
                            <mxPoint x="205" y="190"/>
                        </Array>
                    </mxGeometry>
                </mxCell>
                <mxCell id="342" value="" style="edgeStyle=elbowEdgeStyle;elbow=vertical;endArrow=classic;html=1;curved=0;rounded=0;endSize=8;startSize=8;entryX=0.25;entryY=1;entryDx=0;entryDy=0;strokeColor=#FF00FF;strokeWidth=2;startArrow=classic;startFill=1;exitX=0.5;exitY=0;exitDx=0;exitDy=0;" edge="1" parent="328" source="331" target="339">
                    <mxGeometry width="50" height="50" relative="1" as="geometry">
                        <mxPoint x="416.5" y="300" as="sourcePoint"/>
                        <mxPoint x="203.5" y="120" as="targetPoint"/>
                        <Array as="points">
                            <mxPoint x="190" y="210"/>
                        </Array>
                    </mxGeometry>
                </mxCell>
                <mxCell id="343" value="" style="edgeStyle=elbowEdgeStyle;elbow=vertical;endArrow=classic;html=1;curved=0;rounded=0;endSize=8;startSize=8;entryX=0.25;entryY=1;entryDx=0;entryDy=0;strokeColor=#FF00FF;strokeWidth=2;startArrow=classic;startFill=1;exitX=0.5;exitY=0;exitDx=0;exitDy=0;" edge="1" parent="328" source="331" target="338">
                    <mxGeometry width="50" height="50" relative="1" as="geometry">
                        <mxPoint x="215" y="285" as="sourcePoint"/>
                        <mxPoint x="185" y="130" as="targetPoint"/>
                        <Array as="points">
                            <mxPoint x="320" y="210"/>
                        </Array>
                    </mxGeometry>
                </mxCell>
                <mxCell id="344" value="" style="endArrow=classic;startArrow=classic;html=1;fontSize=25;exitX=0.5;exitY=1;exitDx=0;exitDy=0;entryX=1;entryY=0.5;entryDx=0;entryDy=0;" edge="1" parent="1" source="330" target="7">
                    <mxGeometry width="50" height="50" relative="1" as="geometry">
                        <mxPoint x="-290" y="930" as="sourcePoint"/>
                        <mxPoint x="-240" y="880" as="targetPoint"/>
                        <Array as="points">
                            <mxPoint x="-825" y="1410"/>
                            <mxPoint x="-410" y="1410"/>
                            <mxPoint x="-410" y="1080"/>
                            <mxPoint x="-410" y="785"/>
                        </Array>
                    </mxGeometry>
                </mxCell>
                <mxCell id="345" value="" style="endArrow=classic;startArrow=classic;html=1;fontSize=25;entryX=0.5;entryY=1;entryDx=0;entryDy=0;" edge="1" parent="1" source="7" target="2">
                    <mxGeometry width="50" height="50" relative="1" as="geometry">
                        <mxPoint x="-290" y="930" as="sourcePoint"/>
                        <mxPoint x="-240" y="880" as="targetPoint"/>
                    </mxGeometry>
                </mxCell>
                <mxCell id="346" value="" style="endArrow=classic;startArrow=classic;html=1;fontSize=25;entryX=0.5;entryY=1;entryDx=0;entryDy=0;exitX=0.5;exitY=0;exitDx=0;exitDy=0;" edge="1" parent="1" source="3" target="6">
                    <mxGeometry width="50" height="50" relative="1" as="geometry">
                        <mxPoint x="-290" y="800" as="sourcePoint"/>
                        <mxPoint x="-240" y="750" as="targetPoint"/>
                    </mxGeometry>
                </mxCell>
                <mxCell id="347" value="" style="group;fontSize=10;" vertex="1" connectable="0" parent="1">
                    <mxGeometry x="-230" y="540" width="2770" height="990" as="geometry"/>
                </mxCell>
                <mxCell id="348" value="" style="rounded=1;whiteSpace=wrap;html=1;" vertex="1" parent="347">
                    <mxGeometry y="93.39622641509435" width="1357.6901408450703" height="709.8113207547169" as="geometry"/>
                </mxCell>
                <mxCell id="349" value="&lt;font color=&quot;#008700&quot; style=&quot;font-size: 26px;&quot;&gt;shared memory&lt;/font&gt;" style="ellipse;whiteSpace=wrap;html=1;strokeWidth=2;strokeColor=#008700;" vertex="1" parent="347">
                    <mxGeometry x="983.1549295774647" y="112.0754716981132" width="265.2957746478873" height="74.71698113207546" as="geometry"/>
                </mxCell>
                <mxCell id="350" value="&lt;font color=&quot;#ff00ff&quot; style=&quot;font-size: 26px;&quot;&gt;INDI Server&lt;/font&gt;" style="shape=process;whiteSpace=wrap;html=1;backgroundOutline=1;strokeColor=#FF00FF;" vertex="1" parent="347">
                    <mxGeometry x="85.83098591549296" y="121.41509433962261" width="226.28169014084511" height="56.0377358490566" as="geometry"/>
                </mxCell>
                <mxCell id="351" value="" style="edgeStyle=elbowEdgeStyle;elbow=vertical;endArrow=classic;html=1;curved=0;rounded=0;endSize=8;startSize=8;entryX=0.5;entryY=1;entryDx=0;entryDy=0;strokeColor=#FF00FF;strokeWidth=2;startArrow=classic;startFill=1;" edge="1" parent="347" source="363" target="350">
                    <mxGeometry width="50" height="50" relative="1" as="geometry">
                        <mxPoint x="920.7323943661971" y="289.52830188679235" as="sourcePoint"/>
                        <mxPoint x="944.1408450704228" y="168.1132075471698" as="targetPoint"/>
                        <Array as="points">
                            <mxPoint x="936.3380281690143" y="242.83018867924523"/>
                        </Array>
                    </mxGeometry>
                </mxCell>
                <mxCell id="352" style="edgeStyle=orthogonalEdgeStyle;rounded=0;orthogonalLoop=1;jettySize=auto;html=1;exitX=1;exitY=0.5;exitDx=0;exitDy=0;startArrow=classic;startFill=1;strokeColor=#008700;strokeWidth=2;endArrow=none;endFill=0;" edge="1" parent="347" source="353" target="349">
                    <mxGeometry relative="1" as="geometry"/>
                </mxCell>
                <mxCell id="353" value="&lt;font style=&quot;font-size: 26px;&quot; color=&quot;#008700&quot;&gt;milkzmq server&lt;/font&gt;" style="shape=process;whiteSpace=wrap;html=1;backgroundOutline=1;strokeColor=#008700;strokeWidth=2;" vertex="1" parent="347">
                    <mxGeometry x="616.4225352112677" y="112.0754716981132" width="195.0704225352113" height="74.71698113207546" as="geometry"/>
                </mxCell>
                <mxCell id="354" value="&lt;font style=&quot;font-size: 26px;&quot;&gt;network interface&lt;/font&gt;" style="rounded=1;whiteSpace=wrap;html=1;" vertex="1" parent="347">
                    <mxGeometry x="390.1408450704226" y="102.73584905660378" width="132.64788732394365" height="65.37735849056604" as="geometry"/>
                </mxCell>
                <mxCell id="355" style="edgeStyle=orthogonalEdgeStyle;rounded=0;orthogonalLoop=1;jettySize=auto;html=1;exitX=1;exitY=0.5;exitDx=0;exitDy=0;entryX=0;entryY=0.5;entryDx=0;entryDy=0;startArrow=classic;startFill=1;strokeWidth=2;" edge="1" parent="347" source="350" target="354">
                    <mxGeometry relative="1" as="geometry"/>
                </mxCell>
                <mxCell id="356" style="edgeStyle=orthogonalEdgeStyle;rounded=0;orthogonalLoop=1;jettySize=auto;html=1;exitX=0;exitY=0.5;exitDx=0;exitDy=0;entryX=1.006;entryY=0.617;entryDx=0;entryDy=0;entryPerimeter=0;startArrow=classic;startFill=1;strokeWidth=2;" edge="1" parent="347" source="353" target="354">
                    <mxGeometry relative="1" as="geometry"/>
                </mxCell>
                <mxCell id="357" value="" style="group" vertex="1" connectable="0" parent="347">
                    <mxGeometry x="694.4507042253523" y="280.188679245283" width="632.0281690140844" height="709.8113207547169" as="geometry"/>
                </mxCell>
                <mxCell id="358" value="&lt;font style=&quot;font-size: 26px;&quot;&gt;device&lt;/font&gt;" style="ellipse;whiteSpace=wrap;html=1;aspect=fixed;fillColor=#CC6600;strokeColor=#CC6600;fillStyle=solid;opacity=50;strokeWidth=6;" vertex="1" parent="357">
                    <mxGeometry x="81.14929577464787" y="551.0377358490566" width="90.23732311320755" height="90.23732311320755" as="geometry"/>
                </mxCell>
                <mxCell id="359" value="" style="endArrow=classic;startArrow=classic;html=1;rounded=0;exitX=0.5;exitY=0;exitDx=0;exitDy=0;entryX=0.5;entryY=1;entryDx=0;entryDy=0;fontColor=#CC6600;strokeColor=#CC6600;strokeWidth=3;" edge="1" parent="357" source="358" target="367">
                    <mxGeometry width="50" height="50" relative="1" as="geometry">
                        <mxPoint x="366.73239436619707" y="158.77358490566036" as="sourcePoint"/>
                        <mxPoint x="405.74647887323937" y="112.0754716981132" as="targetPoint"/>
                    </mxGeometry>
                </mxCell>
                <mxCell id="360" value="" style="shape=cylinder3;whiteSpace=wrap;html=1;boundedLbl=1;backgroundOutline=1;size=15;" vertex="1" parent="357">
                    <mxGeometry x="272.31830985915497" y="440.8301886792452" width="46.81690140845069" height="37.35849056603773" as="geometry"/>
                </mxCell>
                <mxCell id="361" value="" style="rounded=1;whiteSpace=wrap;html=1;strokeWidth=2;strokeColor=#66B2FF;" vertex="1" parent="357">
                    <mxGeometry x="31.211267605633793" y="37.35849056603773" width="600.8169014084506" height="345.5660377358491" as="geometry"/>
                </mxCell>
                <mxCell id="362" value="&lt;font color=&quot;#cc6600&quot; style=&quot;font-size: 26px;&quot;&gt;device&amp;nbsp;&lt;/font&gt;&lt;div style=&quot;font-size: 26px;&quot;&gt;&lt;font color=&quot;#cc6600&quot; style=&quot;font-size: 26px;&quot;&gt;interface&lt;/font&gt;&lt;/div&gt;" style="rounded=1;whiteSpace=wrap;html=1;strokeColor=#d88322;strokeWidth=2;" vertex="1" parent="357">
                    <mxGeometry x="78.02816901408448" y="56.0377358490566" width="148.25352112676055" height="84.0566037735849" as="geometry"/>
                </mxCell>
                <mxCell id="363" value="&lt;span style=&quot;font-size: 26px;&quot;&gt;&lt;font color=&quot;#ff00ff&quot;&gt;INDI&lt;/font&gt;&lt;/span&gt;&lt;div&gt;&lt;span style=&quot;font-size: 26px;&quot;&gt;&lt;font color=&quot;#ff00ff&quot;&gt;soft-RT IPC&lt;/font&gt;&lt;/span&gt;&lt;/div&gt;" style="rounded=1;whiteSpace=wrap;html=1;strokeColor=#CC00CC;strokeWidth=2;" vertex="1" parent="357">
                    <mxGeometry x="245.78873239436615" y="56.0377358490566" width="159.95774647887322" height="84.0566037735849" as="geometry"/>
                </mxCell>
                <mxCell id="364" value="&lt;span style=&quot;font-size: 26px;&quot;&gt;&lt;font color=&quot;#008700&quot;&gt;ISIO&lt;/font&gt;&lt;/span&gt;&lt;div&gt;&lt;span style=&quot;font-size: 26px;&quot;&gt;&lt;font color=&quot;#008700&quot;&gt;low-latency IPC&lt;/font&gt;&lt;/span&gt;&lt;/div&gt;" style="rounded=1;whiteSpace=wrap;html=1;strokeColor=#008700;strokeWidth=2;" vertex="1" parent="357">
                    <mxGeometry x="425.25352112676046" y="56.0377358490566" width="159.95774647887322" height="84.0566037735849" as="geometry"/>
                </mxCell>
                <mxCell id="365" value="&lt;font style=&quot;font-size: 26px;&quot;&gt;Event Loop&lt;/font&gt;" style="rounded=1;whiteSpace=wrap;html=1;" vertex="1" parent="357">
                    <mxGeometry x="78.02816901408448" y="186.7924528301887" width="195.0704225352112" height="102.73584905660378" as="geometry"/>
                </mxCell>
                <mxCell id="366" value="&lt;font style=&quot;font-size: 26px;&quot;&gt;low-latency thread(s)&lt;/font&gt;&lt;div&gt;&lt;font style=&quot;font-size: 26px;&quot;&gt;(cpu isolated, r/t priority, etc.)&lt;/font&gt;&lt;/div&gt;" style="rounded=1;whiteSpace=wrap;html=1;" vertex="1" parent="357">
                    <mxGeometry x="312.11267605633793" y="186.7924528301887" width="273.0985915492957" height="102.73584905660378" as="geometry"/>
                </mxCell>
                <mxCell id="367" value="&lt;font style=&quot;font-size: 26px;&quot;&gt;usb, RS232, modbus, telnet, PCIe, etc.&lt;/font&gt;" style="rounded=1;whiteSpace=wrap;html=1;strokeColor=#CC6600;strokeWidth=2;fontColor=#CC6600;" vertex="1" parent="357">
                    <mxGeometry x="53.8394366197183" y="403.47169811320754" width="187.26760563380276" height="93.39622641509435" as="geometry"/>
                </mxCell>
                <mxCell id="368" value="" style="endArrow=classic;startArrow=classic;html=1;rounded=0;entryX=0;entryY=0.5;entryDx=0;entryDy=0;exitX=0;exitY=0.5;exitDx=0;exitDy=0;strokeColor=#CC6600;strokeWidth=3;" edge="1" parent="357" source="367" target="362">
                    <mxGeometry width="50" height="50" relative="1" as="geometry">
                        <mxPoint x="351.12676056338023" y="158.77358490566036" as="sourcePoint"/>
                        <mxPoint x="390.1408450704224" y="112.0754716981132" as="targetPoint"/>
                        <Array as="points">
                            <mxPoint y="450.1698113207546"/>
                            <mxPoint y="98.06603773584904"/>
                        </Array>
                    </mxGeometry>
                </mxCell>
                <mxCell id="369" value="&lt;font style=&quot;font-size: 26px;&quot;&gt;config&lt;/font&gt;" style="rounded=1;whiteSpace=wrap;html=1;" vertex="1" parent="357">
                    <mxGeometry x="241.1070422535211" y="338.0943396226415" width="109.2394366197183" height="37.35849056603773" as="geometry"/>
                </mxCell>
                <mxCell id="370" value="&lt;font style=&quot;font-size: 26px;&quot;&gt;logs&lt;/font&gt;&lt;span style=&quot;color: rgba(0, 0, 0, 0); font-family: monospace; font-size: 0px; text-align: start; text-wrap: nowrap;&quot;&gt;%3CmxGraphModel%3E%3Croot%3E%3CmxCell%20id%3D%220%22%2F%3E%3CmxCell%20id%3D%221%22%20parent%3D%220%22%2F%3E%3CmxCell%20id%3D%222%22%20value%3D%22%26lt%3Bfont%20style%3D%26quot%3Bfont-size%3A%2026px%3B%26quot%3B%26gt%3Bconfig%26lt%3B%2Ffont%26gt%3B%22%20style%3D%22rounded%3D1%3BwhiteSpace%3Dwrap%3Bhtml%3D1%3B%22%20vertex%3D%221%22%20parent%3D%221%22%3E%3CmxGeometry%20x%3D%22-30%22%20y%3D%22740%22%20width%3D%22140%22%20height%3D%2240%22%20as%3D%22geometry%22%2F%3E%3C%2FmxCell%3E%3C%2Froot%3E%3C%2FmxGraphModel%3E&lt;/span&gt;" style="rounded=1;whiteSpace=wrap;html=1;" vertex="1" parent="357">
                    <mxGeometry x="365.95211267605623" y="338.0943396226415" width="109.2394366197183" height="37.35849056603773" as="geometry"/>
                </mxCell>
                <mxCell id="371" value="&lt;span style=&quot;font-size: 26px;&quot;&gt;telemetry&lt;/span&gt;" style="rounded=1;whiteSpace=wrap;html=1;" vertex="1" parent="357">
                    <mxGeometry x="490.79718309859146" y="338.0943396226415" width="109.2394366197183" height="37.35849056603773" as="geometry"/>
                </mxCell>
                <mxCell id="372" value="" style="shape=cylinder3;whiteSpace=wrap;html=1;boundedLbl=1;backgroundOutline=1;size=15;" vertex="1" parent="357">
                    <mxGeometry x="272.31830985915497" y="431.49056603773585" width="46.81690140845069" height="37.35849056603773" as="geometry"/>
                </mxCell>
                <mxCell id="373" value="" style="shape=cylinder3;whiteSpace=wrap;html=1;boundedLbl=1;backgroundOutline=1;size=15;" vertex="1" parent="357">
                    <mxGeometry x="272.31830985915497" y="412.8113207547169" width="46.81690140845069" height="37.35849056603773" as="geometry"/>
                </mxCell>
                <mxCell id="374" value="" style="shape=cylinder3;whiteSpace=wrap;html=1;boundedLbl=1;backgroundOutline=1;size=15;" vertex="1" parent="357">
                    <mxGeometry x="397.16338028168997" y="440.8301886792452" width="46.81690140845069" height="37.35849056603773" as="geometry"/>
                </mxCell>
                <mxCell id="375" value="" style="shape=cylinder3;whiteSpace=wrap;html=1;boundedLbl=1;backgroundOutline=1;size=15;" vertex="1" parent="357">
                    <mxGeometry x="397.16338028168997" y="431.49056603773585" width="46.81690140845069" height="37.35849056603773" as="geometry"/>
                </mxCell>
                <mxCell id="376" value="" style="shape=cylinder3;whiteSpace=wrap;html=1;boundedLbl=1;backgroundOutline=1;size=15;" vertex="1" parent="357">
                    <mxGeometry x="397.16338028168997" y="412.8113207547169" width="46.81690140845069" height="37.35849056603773" as="geometry"/>
                </mxCell>
                <mxCell id="377" value="" style="shape=cylinder3;whiteSpace=wrap;html=1;boundedLbl=1;backgroundOutline=1;size=15;" vertex="1" parent="357">
                    <mxGeometry x="522.0084507042253" y="440.8301886792452" width="46.81690140845069" height="37.35849056603773" as="geometry"/>
                </mxCell>
                <mxCell id="378" value="" style="shape=cylinder3;whiteSpace=wrap;html=1;boundedLbl=1;backgroundOutline=1;size=15;" vertex="1" parent="357">
                    <mxGeometry x="522.0084507042253" y="431.49056603773585" width="46.81690140845069" height="37.35849056603773" as="geometry"/>
                </mxCell>
                <mxCell id="379" value="" style="shape=cylinder3;whiteSpace=wrap;html=1;boundedLbl=1;backgroundOutline=1;size=15;" vertex="1" parent="357">
                    <mxGeometry x="522.0084507042253" y="412.8113207547169" width="46.81690140845069" height="37.35849056603773" as="geometry"/>
                </mxCell>
                <mxCell id="380" value="" style="endArrow=classic;html=1;rounded=0;exitX=0.5;exitY=0;exitDx=0;exitDy=0;exitPerimeter=0;entryX=0.5;entryY=1;entryDx=0;entryDy=0;" edge="1" parent="357" source="373" target="369">
                    <mxGeometry width="50" height="50" relative="1" as="geometry">
                        <mxPoint x="522.0084507042253" y="113.94339622641509" as="sourcePoint"/>
                        <mxPoint x="561.0225352112675" y="67.24528301886792" as="targetPoint"/>
                    </mxGeometry>
                </mxCell>
                <mxCell id="381" value="" style="endArrow=classic;html=1;rounded=0;exitX=0.5;exitY=1;exitDx=0;exitDy=0;entryX=0.5;entryY=0;entryDx=0;entryDy=0;entryPerimeter=0;" edge="1" parent="357" source="370" target="376">
                    <mxGeometry width="50" height="50" relative="1" as="geometry">
                        <mxPoint x="303.52957746478864" y="422.15094339622635" as="sourcePoint"/>
                        <mxPoint x="303.52957746478864" y="384.79245283018867" as="targetPoint"/>
                    </mxGeometry>
                </mxCell>
                <mxCell id="382" value="" style="endArrow=classic;html=1;rounded=0;exitX=0.5;exitY=1;exitDx=0;exitDy=0;entryX=0.5;entryY=0;entryDx=0;entryDy=0;entryPerimeter=0;" edge="1" parent="357" source="371" target="379">
                    <mxGeometry width="50" height="50" relative="1" as="geometry">
                        <mxPoint x="522.0084507042253" y="113.94339622641509" as="sourcePoint"/>
                        <mxPoint x="545.4169014084506" y="403.47169811320754" as="targetPoint"/>
                    </mxGeometry>
                </mxCell>
                <mxCell id="383" value="XWCApp" style="text;html=1;align=center;verticalAlign=middle;whiteSpace=wrap;rounded=0;fontSize=26;fontColor=#3399FF;" vertex="1" parent="357">
                    <mxGeometry x="70.22535211267603" width="85.83098591549295" height="28.0188679245283" as="geometry"/>
                </mxCell>
                <mxCell id="384" value="" style="group" vertex="1" connectable="0" parent="347">
                    <mxGeometry x="31.211267605633807" y="280.188679245283" width="639.830985915493" height="709.8113207547169" as="geometry"/>
                </mxCell>
                <mxCell id="385" value="&lt;font style=&quot;font-size: 26px;&quot;&gt;device&lt;/font&gt;" style="ellipse;whiteSpace=wrap;html=1;aspect=fixed;fillColor=#CC6600;strokeColor=#CC6600;fillStyle=solid;opacity=50;strokeWidth=6;" vertex="1" parent="384">
                    <mxGeometry x="81.92957746478874" y="551.0377358490566" width="90.23732311320755" height="90.23732311320755" as="geometry"/>
                </mxCell>
                <mxCell id="386" value="" style="endArrow=classic;startArrow=classic;html=1;rounded=0;exitX=0.5;exitY=0;exitDx=0;exitDy=0;entryX=0.5;entryY=1;entryDx=0;entryDy=0;fontColor=#CC6600;strokeColor=#CC6600;strokeWidth=3;" edge="1" parent="384" source="385" target="394">
                    <mxGeometry width="50" height="50" relative="1" as="geometry">
                        <mxPoint x="358.9295774647888" y="158.77358490566036" as="sourcePoint"/>
                        <mxPoint x="397.94366197183103" y="112.0754716981132" as="targetPoint"/>
                    </mxGeometry>
                </mxCell>
                <mxCell id="387" value="" style="shape=cylinder3;whiteSpace=wrap;html=1;boundedLbl=1;backgroundOutline=1;size=15;" vertex="1" parent="384">
                    <mxGeometry x="273.0985915492958" y="440.8301886792452" width="46.8169014084507" height="37.35849056603773" as="geometry"/>
                </mxCell>
                <mxCell id="388" value="" style="rounded=1;whiteSpace=wrap;html=1;strokeWidth=2;strokeColor=#66B2FF;" vertex="1" parent="384">
                    <mxGeometry x="39.014084507042256" y="37.35849056603773" width="600.8169014084506" height="345.5660377358491" as="geometry"/>
                </mxCell>
                <mxCell id="389" value="&lt;font color=&quot;#cc6600&quot; style=&quot;font-size: 26px;&quot;&gt;device&amp;nbsp;&lt;/font&gt;&lt;div style=&quot;font-size: 26px;&quot;&gt;&lt;font color=&quot;#cc6600&quot; style=&quot;font-size: 26px;&quot;&gt;interface&lt;/font&gt;&lt;/div&gt;" style="rounded=1;whiteSpace=wrap;html=1;strokeColor=#d88322;strokeWidth=2;" vertex="1" parent="384">
                    <mxGeometry x="85.83098591549296" y="56.0377358490566" width="148.25352112676057" height="84.0566037735849" as="geometry"/>
                </mxCell>
                <mxCell id="390" value="&lt;span style=&quot;font-size: 26px;&quot;&gt;&lt;font color=&quot;#ff00ff&quot;&gt;INDI&lt;/font&gt;&lt;/span&gt;&lt;div&gt;&lt;span style=&quot;font-size: 26px;&quot;&gt;&lt;font color=&quot;#ff00ff&quot;&gt;soft-RT IPC&lt;/font&gt;&lt;/span&gt;&lt;/div&gt;" style="rounded=1;whiteSpace=wrap;html=1;strokeColor=#CC00CC;strokeWidth=2;" vertex="1" parent="384">
                    <mxGeometry x="253.59154929577468" y="56.0377358490566" width="159.95774647887325" height="84.0566037735849" as="geometry"/>
                </mxCell>
                <mxCell id="391" value="&lt;span style=&quot;font-size: 26px;&quot;&gt;&lt;font color=&quot;#008700&quot;&gt;ISIO&lt;/font&gt;&lt;/span&gt;&lt;div&gt;&lt;span style=&quot;font-size: 26px;&quot;&gt;&lt;font color=&quot;#008700&quot;&gt;low-latency IPC&lt;/font&gt;&lt;/span&gt;&lt;/div&gt;" style="rounded=1;whiteSpace=wrap;html=1;strokeColor=#008700;strokeWidth=2;" vertex="1" parent="384">
                    <mxGeometry x="433.056338028169" y="56.0377358490566" width="159.95774647887325" height="84.0566037735849" as="geometry"/>
                </mxCell>
                <mxCell id="392" value="&lt;font style=&quot;font-size: 26px;&quot;&gt;Event Loop&lt;/font&gt;" style="rounded=1;whiteSpace=wrap;html=1;" vertex="1" parent="384">
                    <mxGeometry x="85.83098591549296" y="186.7924528301887" width="195.0704225352113" height="102.73584905660378" as="geometry"/>
                </mxCell>
                <mxCell id="393" value="&lt;font style=&quot;font-size: 26px;&quot;&gt;low-latency thread(s)&lt;/font&gt;&lt;div&gt;&lt;font style=&quot;font-size: 26px;&quot;&gt;(cpu isolated, r/t priority, etc.)&lt;/font&gt;&lt;/div&gt;" style="rounded=1;whiteSpace=wrap;html=1;" vertex="1" parent="384">
                    <mxGeometry x="319.9154929577465" y="186.7924528301887" width="273.0985915492958" height="102.73584905660378" as="geometry"/>
                </mxCell>
                <mxCell id="394" value="&lt;font style=&quot;font-size: 26px;&quot;&gt;usb, RS232, modbus, telnet, PCIe, etc.&lt;/font&gt;" style="rounded=1;whiteSpace=wrap;html=1;strokeColor=#CC6600;strokeWidth=2;fontColor=#CC6600;" vertex="1" parent="384">
                    <mxGeometry x="54.61971830985916" y="401.6037735849057" width="187.2676056338028" height="93.39622641509435" as="geometry"/>
                </mxCell>
                <mxCell id="395" value="" style="endArrow=classic;startArrow=classic;html=1;rounded=0;entryX=0;entryY=0.5;entryDx=0;entryDy=0;exitX=0;exitY=0.5;exitDx=0;exitDy=0;strokeColor=#CC6600;strokeWidth=3;" edge="1" parent="384" source="394" target="389">
                    <mxGeometry width="50" height="50" relative="1" as="geometry">
                        <mxPoint x="358.9295774647888" y="158.77358490566036" as="sourcePoint"/>
                        <mxPoint x="397.94366197183103" y="112.0754716981132" as="targetPoint"/>
                        <Array as="points">
                            <mxPoint y="448.3018867924528"/>
                            <mxPoint y="98.06603773584904"/>
                        </Array>
                    </mxGeometry>
                </mxCell>
                <mxCell id="396" value="&lt;font style=&quot;font-size: 26px;&quot;&gt;config&lt;/font&gt;" style="rounded=1;whiteSpace=wrap;html=1;" vertex="1" parent="384">
                    <mxGeometry x="241.88732394366195" y="338.0943396226415" width="109.23943661971832" height="37.35849056603773" as="geometry"/>
                </mxCell>
                <mxCell id="397" value="&lt;font style=&quot;font-size: 26px;&quot;&gt;logs&lt;/font&gt;&lt;span style=&quot;color: rgba(0, 0, 0, 0); font-family: monospace; font-size: 0px; text-align: start; text-wrap: nowrap;&quot;&gt;%3CmxGraphModel%3E%3Croot%3E%3CmxCell%20id%3D%220%22%2F%3E%3CmxCell%20id%3D%221%22%20parent%3D%220%22%2F%3E%3CmxCell%20id%3D%222%22%20value%3D%22%26lt%3Bfont%20style%3D%26quot%3Bfont-size%3A%2026px%3B%26quot%3B%26gt%3Bconfig%26lt%3B%2Ffont%26gt%3B%22%20style%3D%22rounded%3D1%3BwhiteSpace%3Dwrap%3Bhtml%3D1%3B%22%20vertex%3D%221%22%20parent%3D%221%22%3E%3CmxGeometry%20x%3D%22-30%22%20y%3D%22740%22%20width%3D%22140%22%20height%3D%2240%22%20as%3D%22geometry%22%2F%3E%3C%2FmxCell%3E%3C%2Froot%3E%3C%2FmxGraphModel%3E&lt;/span&gt;" style="rounded=1;whiteSpace=wrap;html=1;" vertex="1" parent="384">
                    <mxGeometry x="366.7323943661972" y="338.0943396226415" width="109.23943661971832" height="37.35849056603773" as="geometry"/>
                </mxCell>
                <mxCell id="398" value="&lt;span style=&quot;font-size: 26px;&quot;&gt;telemetry&lt;/span&gt;" style="rounded=1;whiteSpace=wrap;html=1;" vertex="1" parent="384">
                    <mxGeometry x="491.57746478873236" y="338.0943396226415" width="109.23943661971832" height="37.35849056603773" as="geometry"/>
                </mxCell>
                <mxCell id="399" value="" style="shape=cylinder3;whiteSpace=wrap;html=1;boundedLbl=1;backgroundOutline=1;size=15;" vertex="1" parent="384">
                    <mxGeometry x="273.0985915492958" y="431.49056603773585" width="46.8169014084507" height="37.35849056603773" as="geometry"/>
                </mxCell>
                <mxCell id="400" value="" style="shape=cylinder3;whiteSpace=wrap;html=1;boundedLbl=1;backgroundOutline=1;size=15;" vertex="1" parent="384">
                    <mxGeometry x="273.0985915492958" y="412.8113207547169" width="46.8169014084507" height="37.35849056603773" as="geometry"/>
                </mxCell>
                <mxCell id="401" value="" style="shape=cylinder3;whiteSpace=wrap;html=1;boundedLbl=1;backgroundOutline=1;size=15;" vertex="1" parent="384">
                    <mxGeometry x="397.94366197183103" y="440.8301886792452" width="46.8169014084507" height="37.35849056603773" as="geometry"/>
                </mxCell>
                <mxCell id="402" value="" style="shape=cylinder3;whiteSpace=wrap;html=1;boundedLbl=1;backgroundOutline=1;size=15;" vertex="1" parent="384">
                    <mxGeometry x="397.94366197183103" y="431.49056603773585" width="46.8169014084507" height="37.35849056603773" as="geometry"/>
                </mxCell>
                <mxCell id="403" value="" style="shape=cylinder3;whiteSpace=wrap;html=1;boundedLbl=1;backgroundOutline=1;size=15;" vertex="1" parent="384">
                    <mxGeometry x="397.94366197183103" y="412.8113207547169" width="46.8169014084507" height="37.35849056603773" as="geometry"/>
                </mxCell>
                <mxCell id="404" value="" style="shape=cylinder3;whiteSpace=wrap;html=1;boundedLbl=1;backgroundOutline=1;size=15;" vertex="1" parent="384">
                    <mxGeometry x="522.7887323943663" y="440.8301886792452" width="46.8169014084507" height="37.35849056603773" as="geometry"/>
                </mxCell>
                <mxCell id="405" value="" style="shape=cylinder3;whiteSpace=wrap;html=1;boundedLbl=1;backgroundOutline=1;size=15;" vertex="1" parent="384">
                    <mxGeometry x="522.7887323943663" y="431.49056603773585" width="46.8169014084507" height="37.35849056603773" as="geometry"/>
                </mxCell>
                <mxCell id="406" value="" style="shape=cylinder3;whiteSpace=wrap;html=1;boundedLbl=1;backgroundOutline=1;size=15;" vertex="1" parent="384">
                    <mxGeometry x="522.7887323943663" y="412.8113207547169" width="46.8169014084507" height="37.35849056603773" as="geometry"/>
                </mxCell>
                <mxCell id="407" value="" style="endArrow=classic;html=1;rounded=0;exitX=0.5;exitY=0;exitDx=0;exitDy=0;exitPerimeter=0;entryX=0.5;entryY=1;entryDx=0;entryDy=0;" edge="1" parent="384" source="400" target="396">
                    <mxGeometry width="50" height="50" relative="1" as="geometry">
                        <mxPoint x="522.7887323943663" y="113.94339622641509" as="sourcePoint"/>
                        <mxPoint x="561.8028169014085" y="67.24528301886792" as="targetPoint"/>
                    </mxGeometry>
                </mxCell>
                <mxCell id="408" value="" style="endArrow=classic;html=1;rounded=0;exitX=0.5;exitY=1;exitDx=0;exitDy=0;entryX=0.5;entryY=0;entryDx=0;entryDy=0;entryPerimeter=0;" edge="1" parent="384" source="397" target="403">
                    <mxGeometry width="50" height="50" relative="1" as="geometry">
                        <mxPoint x="304.3098591549297" y="422.15094339622635" as="sourcePoint"/>
                        <mxPoint x="304.3098591549297" y="384.79245283018867" as="targetPoint"/>
                    </mxGeometry>
                </mxCell>
                <mxCell id="409" value="" style="endArrow=classic;html=1;rounded=0;exitX=0.5;exitY=1;exitDx=0;exitDy=0;entryX=0.5;entryY=0;entryDx=0;entryDy=0;entryPerimeter=0;" edge="1" parent="384" source="398" target="406">
                    <mxGeometry width="50" height="50" relative="1" as="geometry">
                        <mxPoint x="522.7887323943663" y="113.94339622641509" as="sourcePoint"/>
                        <mxPoint x="546.1971830985916" y="403.47169811320754" as="targetPoint"/>
                    </mxGeometry>
                </mxCell>
                <mxCell id="410" value="XWCApp" style="text;html=1;align=center;verticalAlign=middle;whiteSpace=wrap;rounded=0;fontSize=26;fontColor=#3399FF;" vertex="1" parent="384">
                    <mxGeometry x="78.02816901408451" width="85.83098591549296" height="28.0188679245283" as="geometry"/>
                </mxCell>
                <mxCell id="411" value="" style="edgeStyle=elbowEdgeStyle;elbow=vertical;endArrow=classic;html=1;curved=0;rounded=0;endSize=8;startSize=8;entryX=0.5;entryY=1;entryDx=0;entryDy=0;strokeColor=#FF00FF;strokeWidth=2;startArrow=classic;startFill=1;" edge="1" parent="347" target="350">
                    <mxGeometry width="50" height="50" relative="1" as="geometry">
                        <mxPoint x="365.17183098591545" y="345.5660377358491" as="sourcePoint"/>
                        <mxPoint x="202.87323943661977" y="177.45283018867923" as="targetPoint"/>
                        <Array as="points">
                            <mxPoint x="327.71830985915494" y="242.83018867924523"/>
                        </Array>
                    </mxGeometry>
                </mxCell>
                <mxCell id="412" value="" style="edgeStyle=elbowEdgeStyle;elbow=vertical;endArrow=classic;html=1;curved=0;rounded=0;endSize=8;startSize=8;startArrow=classic;startFill=1;strokeColor=#008700;strokeWidth=2;exitX=0.5;exitY=0;exitDx=0;exitDy=0;entryX=0.5;entryY=1;entryDx=0;entryDy=0;" edge="1" parent="347" source="364" target="349">
                    <mxGeometry width="50" height="50" relative="1" as="geometry">
                        <mxPoint x="692.8901408450706" y="345.5660377358491" as="sourcePoint"/>
                        <mxPoint x="1084.5915492957747" y="177.45283018867923" as="targetPoint"/>
                        <Array as="points">
                            <mxPoint x="1217.2394366197188" y="261.50943396226415"/>
                        </Array>
                    </mxGeometry>
                </mxCell>
                <mxCell id="413" value="&lt;font style=&quot;font-size: 26px;&quot;&gt;Control Computer&lt;/font&gt;" style="text;html=1;align=center;verticalAlign=middle;whiteSpace=wrap;rounded=0;" vertex="1" parent="347">
                    <mxGeometry x="62.422535211267615" y="56.0377358490566" width="202.87323943661977" height="28.0188679245283" as="geometry"/>
                </mxCell>
                <mxCell id="414" value="&lt;font style=&quot;font-size: 26px;&quot;&gt;tcp/ip network&lt;/font&gt;" style="rounded=1;whiteSpace=wrap;html=1;" vertex="1" parent="347">
                    <mxGeometry x="374.5352112676056" width="163.85915492957747" height="56.0377358490566" as="geometry"/>
                </mxCell>
                <mxCell id="415" value="" style="endArrow=classic;startArrow=classic;html=1;rounded=0;exitX=0.5;exitY=0;exitDx=0;exitDy=0;entryX=0.5;entryY=1;entryDx=0;entryDy=0;" edge="1" parent="347" source="354" target="414">
                    <mxGeometry width="50" height="50" relative="1" as="geometry">
                        <mxPoint x="585.2112676056338" y="-56.0377358490566" as="sourcePoint"/>
                        <mxPoint x="624.2253521126761" y="-102.73584905660378" as="targetPoint"/>
                    </mxGeometry>
                </mxCell>
                <mxCell id="416" value="" style="rounded=1;whiteSpace=wrap;html=1;" vertex="1" parent="347">
                    <mxGeometry x="1412.3098591549297" y="93.39622641509435" width="1357.6901408450703" height="709.8113207547169" as="geometry"/>
                </mxCell>
                <mxCell id="417" value="&lt;font color=&quot;#008700&quot; style=&quot;font-size: 26px;&quot;&gt;shared memory&lt;/font&gt;" style="ellipse;whiteSpace=wrap;html=1;strokeWidth=2;strokeColor=#008700;" vertex="1" parent="347">
                    <mxGeometry x="2395.464788732395" y="112.0754716981132" width="265.2957746478873" height="74.71698113207546" as="geometry"/>
                </mxCell>
                <mxCell id="418" value="&lt;font color=&quot;#ff00ff&quot; style=&quot;font-size: 26px;&quot;&gt;INDI Server&lt;/font&gt;" style="shape=process;whiteSpace=wrap;html=1;backgroundOutline=1;strokeColor=#FF00FF;" vertex="1" parent="347">
                    <mxGeometry x="1498.1408450704223" y="121.41509433962261" width="226.28169014084511" height="56.0377358490566" as="geometry"/>
                </mxCell>
                <mxCell id="419" value="" style="edgeStyle=elbowEdgeStyle;elbow=vertical;endArrow=classic;html=1;curved=0;rounded=0;endSize=8;startSize=8;entryX=0.5;entryY=1;entryDx=0;entryDy=0;strokeColor=#FF00FF;strokeWidth=2;startArrow=classic;startFill=1;" edge="1" parent="347" source="430" target="418">
                    <mxGeometry width="50" height="50" relative="1" as="geometry">
                        <mxPoint x="2333.0422535211273" y="289.52830188679235" as="sourcePoint"/>
                        <mxPoint x="2356.4507042253517" y="168.1132075471698" as="targetPoint"/>
                        <Array as="points">
                            <mxPoint x="2348.6478873239444" y="242.83018867924523"/>
                        </Array>
                    </mxGeometry>
                </mxCell>
                <mxCell id="420" style="edgeStyle=orthogonalEdgeStyle;rounded=0;orthogonalLoop=1;jettySize=auto;html=1;exitX=1;exitY=0.5;exitDx=0;exitDy=0;startArrow=classic;startFill=1;strokeColor=#008700;strokeWidth=2;endArrow=none;endFill=0;" edge="1" parent="347" source="421" target="417">
                    <mxGeometry relative="1" as="geometry"/>
                </mxCell>
                <mxCell id="421" value="&lt;font style=&quot;font-size: 26px;&quot; color=&quot;#008700&quot;&gt;milkzmq server&lt;/font&gt;" style="shape=process;whiteSpace=wrap;html=1;backgroundOutline=1;strokeColor=#008700;strokeWidth=2;" vertex="1" parent="347">
                    <mxGeometry x="2028.7323943661975" y="112.0754716981132" width="195.0704225352113" height="74.71698113207546" as="geometry"/>
                </mxCell>
                <mxCell id="422" value="&lt;font style=&quot;font-size: 26px;&quot;&gt;network interface&lt;/font&gt;" style="rounded=1;whiteSpace=wrap;html=1;" vertex="1" parent="347">
                    <mxGeometry x="1802.4507042253524" y="102.73584905660378" width="132.64788732394365" height="65.37735849056604" as="geometry"/>
                </mxCell>
                <mxCell id="423" style="edgeStyle=orthogonalEdgeStyle;rounded=0;orthogonalLoop=1;jettySize=auto;html=1;exitX=0;exitY=0.5;exitDx=0;exitDy=0;entryX=1.006;entryY=0.617;entryDx=0;entryDy=0;entryPerimeter=0;startArrow=classic;startFill=1;strokeWidth=2;" edge="1" parent="347" source="421" target="422">
                    <mxGeometry relative="1" as="geometry"/>
                </mxCell>
                <mxCell id="424" value="" style="group" vertex="1" connectable="0" parent="347">
                    <mxGeometry x="2106.760563380282" y="280.188679245283" width="632.0281690140844" height="709.8113207547169" as="geometry"/>
                </mxCell>
                <mxCell id="425" value="&lt;font style=&quot;font-size: 26px;&quot;&gt;device&lt;/font&gt;" style="ellipse;whiteSpace=wrap;html=1;aspect=fixed;fillColor=#CC6600;strokeColor=#CC6600;fillStyle=solid;opacity=50;strokeWidth=6;" vertex="1" parent="424">
                    <mxGeometry x="81.14929577464787" y="551.0377358490566" width="90.23732311320755" height="90.23732311320755" as="geometry"/>
                </mxCell>
                <mxCell id="426" value="" style="endArrow=classic;startArrow=classic;html=1;rounded=0;exitX=0.5;exitY=0;exitDx=0;exitDy=0;entryX=0.5;entryY=1;entryDx=0;entryDy=0;fontColor=#CC6600;strokeColor=#CC6600;strokeWidth=3;" edge="1" parent="424" source="425" target="434">
                    <mxGeometry width="50" height="50" relative="1" as="geometry">
                        <mxPoint x="366.73239436619707" y="158.77358490566036" as="sourcePoint"/>
                        <mxPoint x="405.74647887323937" y="112.0754716981132" as="targetPoint"/>
                    </mxGeometry>
                </mxCell>
                <mxCell id="427" value="" style="shape=cylinder3;whiteSpace=wrap;html=1;boundedLbl=1;backgroundOutline=1;size=15;" vertex="1" parent="424">
                    <mxGeometry x="272.31830985915497" y="440.8301886792452" width="46.81690140845069" height="37.35849056603773" as="geometry"/>
                </mxCell>
                <mxCell id="428" value="" style="rounded=1;whiteSpace=wrap;html=1;strokeWidth=2;strokeColor=#66B2FF;" vertex="1" parent="424">
                    <mxGeometry x="31.211267605633793" y="37.35849056603773" width="600.8169014084506" height="345.5660377358491" as="geometry"/>
                </mxCell>
                <mxCell id="429" value="&lt;font color=&quot;#cc6600&quot; style=&quot;font-size: 26px;&quot;&gt;device&amp;nbsp;&lt;/font&gt;&lt;div style=&quot;font-size: 26px;&quot;&gt;&lt;font color=&quot;#cc6600&quot; style=&quot;font-size: 26px;&quot;&gt;interface&lt;/font&gt;&lt;/div&gt;" style="rounded=1;whiteSpace=wrap;html=1;strokeColor=#d88322;strokeWidth=2;" vertex="1" parent="424">
                    <mxGeometry x="78.02816901408448" y="56.0377358490566" width="148.25352112676055" height="84.0566037735849" as="geometry"/>
                </mxCell>
                <mxCell id="430" value="&lt;span style=&quot;font-size: 26px;&quot;&gt;&lt;font color=&quot;#ff00ff&quot;&gt;INDI&lt;/font&gt;&lt;/span&gt;&lt;div&gt;&lt;span style=&quot;font-size: 26px;&quot;&gt;&lt;font color=&quot;#ff00ff&quot;&gt;soft-RT IPC&lt;/font&gt;&lt;/span&gt;&lt;/div&gt;" style="rounded=1;whiteSpace=wrap;html=1;strokeColor=#CC00CC;strokeWidth=2;" vertex="1" parent="424">
                    <mxGeometry x="245.78873239436615" y="56.0377358490566" width="159.95774647887322" height="84.0566037735849" as="geometry"/>
                </mxCell>
                <mxCell id="431" value="&lt;span style=&quot;font-size: 26px;&quot;&gt;&lt;font color=&quot;#008700&quot;&gt;ISIO&lt;/font&gt;&lt;/span&gt;&lt;div&gt;&lt;span style=&quot;font-size: 26px;&quot;&gt;&lt;font color=&quot;#008700&quot;&gt;low-latency IPC&lt;/font&gt;&lt;/span&gt;&lt;/div&gt;" style="rounded=1;whiteSpace=wrap;html=1;strokeColor=#008700;strokeWidth=2;" vertex="1" parent="424">
                    <mxGeometry x="425.25352112676046" y="56.0377358490566" width="159.95774647887322" height="84.0566037735849" as="geometry"/>
                </mxCell>
                <mxCell id="432" value="&lt;font style=&quot;font-size: 26px;&quot;&gt;Event Loop&lt;/font&gt;" style="rounded=1;whiteSpace=wrap;html=1;" vertex="1" parent="424">
                    <mxGeometry x="78.02816901408448" y="186.7924528301887" width="195.0704225352112" height="102.73584905660378" as="geometry"/>
                </mxCell>
                <mxCell id="433" value="&lt;font style=&quot;font-size: 26px;&quot;&gt;low-latency thread(s)&lt;/font&gt;&lt;div&gt;&lt;font style=&quot;font-size: 26px;&quot;&gt;(cpu isolated, r/t priority, etc.)&lt;/font&gt;&lt;/div&gt;" style="rounded=1;whiteSpace=wrap;html=1;" vertex="1" parent="424">
                    <mxGeometry x="312.11267605633793" y="186.7924528301887" width="273.0985915492957" height="102.73584905660378" as="geometry"/>
                </mxCell>
                <mxCell id="434" value="&lt;font style=&quot;font-size: 26px;&quot;&gt;usb, RS232, modbus, telnet, PCIe, etc.&lt;/font&gt;" style="rounded=1;whiteSpace=wrap;html=1;strokeColor=#CC6600;strokeWidth=2;fontColor=#CC6600;" vertex="1" parent="424">
                    <mxGeometry x="53.8394366197183" y="403.47169811320754" width="187.26760563380276" height="93.39622641509435" as="geometry"/>
                </mxCell>
                <mxCell id="435" value="" style="endArrow=classic;startArrow=classic;html=1;rounded=0;entryX=0;entryY=0.5;entryDx=0;entryDy=0;exitX=0;exitY=0.5;exitDx=0;exitDy=0;strokeColor=#CC6600;strokeWidth=3;" edge="1" parent="424" source="434" target="429">
                    <mxGeometry width="50" height="50" relative="1" as="geometry">
                        <mxPoint x="351.12676056338023" y="158.77358490566036" as="sourcePoint"/>
                        <mxPoint x="390.1408450704224" y="112.0754716981132" as="targetPoint"/>
                        <Array as="points">
                            <mxPoint y="450.1698113207546"/>
                            <mxPoint y="98.06603773584904"/>
                        </Array>
                    </mxGeometry>
                </mxCell>
                <mxCell id="436" value="&lt;font style=&quot;font-size: 26px;&quot;&gt;config&lt;/font&gt;" style="rounded=1;whiteSpace=wrap;html=1;" vertex="1" parent="424">
                    <mxGeometry x="241.1070422535211" y="338.0943396226415" width="109.2394366197183" height="37.35849056603773" as="geometry"/>
                </mxCell>
                <mxCell id="437" value="&lt;font style=&quot;font-size: 26px;&quot;&gt;logs&lt;/font&gt;&lt;span style=&quot;color: rgba(0, 0, 0, 0); font-family: monospace; font-size: 0px; text-align: start; text-wrap: nowrap;&quot;&gt;%3CmxGraphModel%3E%3Croot%3E%3CmxCell%20id%3D%220%22%2F%3E%3CmxCell%20id%3D%221%22%20parent%3D%220%22%2F%3E%3CmxCell%20id%3D%222%22%20value%3D%22%26lt%3Bfont%20style%3D%26quot%3Bfont-size%3A%2026px%3B%26quot%3B%26gt%3Bconfig%26lt%3B%2Ffont%26gt%3B%22%20style%3D%22rounded%3D1%3BwhiteSpace%3Dwrap%3Bhtml%3D1%3B%22%20vertex%3D%221%22%20parent%3D%221%22%3E%3CmxGeometry%20x%3D%22-30%22%20y%3D%22740%22%20width%3D%22140%22%20height%3D%2240%22%20as%3D%22geometry%22%2F%3E%3C%2FmxCell%3E%3C%2Froot%3E%3C%2FmxGraphModel%3E&lt;/span&gt;" style="rounded=1;whiteSpace=wrap;html=1;" vertex="1" parent="424">
                    <mxGeometry x="365.95211267605623" y="338.0943396226415" width="109.2394366197183" height="37.35849056603773" as="geometry"/>
                </mxCell>
                <mxCell id="438" value="&lt;span style=&quot;font-size: 26px;&quot;&gt;telemetry&lt;/span&gt;" style="rounded=1;whiteSpace=wrap;html=1;" vertex="1" parent="424">
                    <mxGeometry x="490.79718309859146" y="338.0943396226415" width="109.2394366197183" height="37.35849056603773" as="geometry"/>
                </mxCell>
                <mxCell id="439" value="" style="shape=cylinder3;whiteSpace=wrap;html=1;boundedLbl=1;backgroundOutline=1;size=15;" vertex="1" parent="424">
                    <mxGeometry x="272.31830985915497" y="431.49056603773585" width="46.81690140845069" height="37.35849056603773" as="geometry"/>
                </mxCell>
                <mxCell id="440" value="" style="shape=cylinder3;whiteSpace=wrap;html=1;boundedLbl=1;backgroundOutline=1;size=15;" vertex="1" parent="424">
                    <mxGeometry x="272.31830985915497" y="412.8113207547169" width="46.81690140845069" height="37.35849056603773" as="geometry"/>
                </mxCell>
                <mxCell id="441" value="" style="shape=cylinder3;whiteSpace=wrap;html=1;boundedLbl=1;backgroundOutline=1;size=15;" vertex="1" parent="424">
                    <mxGeometry x="397.16338028168997" y="440.8301886792452" width="46.81690140845069" height="37.35849056603773" as="geometry"/>
                </mxCell>
                <mxCell id="442" value="" style="shape=cylinder3;whiteSpace=wrap;html=1;boundedLbl=1;backgroundOutline=1;size=15;" vertex="1" parent="424">
                    <mxGeometry x="397.16338028168997" y="431.49056603773585" width="46.81690140845069" height="37.35849056603773" as="geometry"/>
                </mxCell>
                <mxCell id="443" value="" style="shape=cylinder3;whiteSpace=wrap;html=1;boundedLbl=1;backgroundOutline=1;size=15;" vertex="1" parent="424">
                    <mxGeometry x="397.16338028168997" y="412.8113207547169" width="46.81690140845069" height="37.35849056603773" as="geometry"/>
                </mxCell>
                <mxCell id="444" value="" style="shape=cylinder3;whiteSpace=wrap;html=1;boundedLbl=1;backgroundOutline=1;size=15;" vertex="1" parent="424">
                    <mxGeometry x="522.0084507042253" y="440.8301886792452" width="46.81690140845069" height="37.35849056603773" as="geometry"/>
                </mxCell>
                <mxCell id="445" value="" style="shape=cylinder3;whiteSpace=wrap;html=1;boundedLbl=1;backgroundOutline=1;size=15;" vertex="1" parent="424">
                    <mxGeometry x="522.0084507042253" y="431.49056603773585" width="46.81690140845069" height="37.35849056603773" as="geometry"/>
                </mxCell>
                <mxCell id="446" value="" style="shape=cylinder3;whiteSpace=wrap;html=1;boundedLbl=1;backgroundOutline=1;size=15;" vertex="1" parent="424">
                    <mxGeometry x="522.0084507042253" y="412.8113207547169" width="46.81690140845069" height="37.35849056603773" as="geometry"/>
                </mxCell>
                <mxCell id="447" value="" style="endArrow=classic;html=1;rounded=0;exitX=0.5;exitY=0;exitDx=0;exitDy=0;exitPerimeter=0;entryX=0.5;entryY=1;entryDx=0;entryDy=0;" edge="1" parent="424" source="440" target="436">
                    <mxGeometry width="50" height="50" relative="1" as="geometry">
                        <mxPoint x="522.0084507042253" y="113.94339622641509" as="sourcePoint"/>
                        <mxPoint x="561.0225352112675" y="67.24528301886792" as="targetPoint"/>
                    </mxGeometry>
                </mxCell>
                <mxCell id="448" value="" style="endArrow=classic;html=1;rounded=0;exitX=0.5;exitY=1;exitDx=0;exitDy=0;entryX=0.5;entryY=0;entryDx=0;entryDy=0;entryPerimeter=0;" edge="1" parent="424" source="437" target="443">
                    <mxGeometry width="50" height="50" relative="1" as="geometry">
                        <mxPoint x="303.52957746478864" y="422.15094339622635" as="sourcePoint"/>
                        <mxPoint x="303.52957746478864" y="384.79245283018867" as="targetPoint"/>
                    </mxGeometry>
                </mxCell>
                <mxCell id="449" value="" style="endArrow=classic;html=1;rounded=0;exitX=0.5;exitY=1;exitDx=0;exitDy=0;entryX=0.5;entryY=0;entryDx=0;entryDy=0;entryPerimeter=0;" edge="1" parent="424" source="438" target="446">
                    <mxGeometry width="50" height="50" relative="1" as="geometry">
                        <mxPoint x="522.0084507042253" y="113.94339622641509" as="sourcePoint"/>
                        <mxPoint x="545.4169014084506" y="403.47169811320754" as="targetPoint"/>
                    </mxGeometry>
                </mxCell>
                <mxCell id="450" value="XWCApp" style="text;html=1;align=center;verticalAlign=middle;whiteSpace=wrap;rounded=0;fontSize=26;fontColor=#3399FF;" vertex="1" parent="424">
                    <mxGeometry x="70.22535211267603" width="85.83098591549295" height="28.0188679245283" as="geometry"/>
                </mxCell>
                <mxCell id="451" value="" style="group" vertex="1" connectable="0" parent="347">
                    <mxGeometry x="1443.5211267605637" y="280.188679245283" width="639.830985915493" height="709.8113207547169" as="geometry"/>
                </mxCell>
                <mxCell id="452" value="&lt;font style=&quot;font-size: 26px;&quot;&gt;device&lt;/font&gt;" style="ellipse;whiteSpace=wrap;html=1;aspect=fixed;fillColor=#CC6600;strokeColor=#CC6600;fillStyle=solid;opacity=50;strokeWidth=6;" vertex="1" parent="451">
                    <mxGeometry x="81.92957746478874" y="551.0377358490566" width="90.23732311320755" height="90.23732311320755" as="geometry"/>
                </mxCell>
                <mxCell id="453" value="" style="endArrow=classic;startArrow=classic;html=1;rounded=0;exitX=0.5;exitY=0;exitDx=0;exitDy=0;entryX=0.5;entryY=1;entryDx=0;entryDy=0;fontColor=#CC6600;strokeColor=#CC6600;strokeWidth=3;" edge="1" parent="451" source="452" target="461">
                    <mxGeometry width="50" height="50" relative="1" as="geometry">
                        <mxPoint x="358.9295774647888" y="158.77358490566036" as="sourcePoint"/>
                        <mxPoint x="397.94366197183103" y="112.0754716981132" as="targetPoint"/>
                    </mxGeometry>
                </mxCell>
                <mxCell id="454" value="" style="shape=cylinder3;whiteSpace=wrap;html=1;boundedLbl=1;backgroundOutline=1;size=15;" vertex="1" parent="451">
                    <mxGeometry x="273.0985915492958" y="440.8301886792452" width="46.8169014084507" height="37.35849056603773" as="geometry"/>
                </mxCell>
                <mxCell id="455" value="" style="rounded=1;whiteSpace=wrap;html=1;strokeWidth=2;strokeColor=#66B2FF;" vertex="1" parent="451">
                    <mxGeometry x="39.014084507042256" y="37.35849056603773" width="600.8169014084506" height="345.5660377358491" as="geometry"/>
                </mxCell>
                <mxCell id="456" value="&lt;font color=&quot;#cc6600&quot; style=&quot;font-size: 26px;&quot;&gt;device&amp;nbsp;&lt;/font&gt;&lt;div style=&quot;font-size: 26px;&quot;&gt;&lt;font color=&quot;#cc6600&quot; style=&quot;font-size: 26px;&quot;&gt;interface&lt;/font&gt;&lt;/div&gt;" style="rounded=1;whiteSpace=wrap;html=1;strokeColor=#d88322;strokeWidth=2;" vertex="1" parent="451">
                    <mxGeometry x="85.83098591549296" y="56.0377358490566" width="148.25352112676057" height="84.0566037735849" as="geometry"/>
                </mxCell>
                <mxCell id="457" value="&lt;span style=&quot;font-size: 26px;&quot;&gt;&lt;font color=&quot;#ff00ff&quot;&gt;INDI&lt;/font&gt;&lt;/span&gt;&lt;div&gt;&lt;span style=&quot;font-size: 26px;&quot;&gt;&lt;font color=&quot;#ff00ff&quot;&gt;soft-RT IPC&lt;/font&gt;&lt;/span&gt;&lt;/div&gt;" style="rounded=1;whiteSpace=wrap;html=1;strokeColor=#CC00CC;strokeWidth=2;" vertex="1" parent="451">
                    <mxGeometry x="253.59154929577468" y="56.0377358490566" width="159.95774647887325" height="84.0566037735849" as="geometry"/>
                </mxCell>
                <mxCell id="458" value="&lt;span style=&quot;font-size: 26px;&quot;&gt;&lt;font color=&quot;#008700&quot;&gt;ISIO&lt;/font&gt;&lt;/span&gt;&lt;div&gt;&lt;span style=&quot;font-size: 26px;&quot;&gt;&lt;font color=&quot;#008700&quot;&gt;low-latency IPC&lt;/font&gt;&lt;/span&gt;&lt;/div&gt;" style="rounded=1;whiteSpace=wrap;html=1;strokeColor=#008700;strokeWidth=2;" vertex="1" parent="451">
                    <mxGeometry x="433.056338028169" y="56.0377358490566" width="159.95774647887325" height="84.0566037735849" as="geometry"/>
                </mxCell>
                <mxCell id="459" value="&lt;font style=&quot;font-size: 26px;&quot;&gt;Event Loop&lt;/font&gt;" style="rounded=1;whiteSpace=wrap;html=1;" vertex="1" parent="451">
                    <mxGeometry x="85.83098591549296" y="186.7924528301887" width="195.0704225352113" height="102.73584905660378" as="geometry"/>
                </mxCell>
                <mxCell id="460" value="&lt;font style=&quot;font-size: 26px;&quot;&gt;low-latency thread(s)&lt;/font&gt;&lt;div&gt;&lt;font style=&quot;font-size: 26px;&quot;&gt;(cpu isolated, r/t priority, etc.)&lt;/font&gt;&lt;/div&gt;" style="rounded=1;whiteSpace=wrap;html=1;" vertex="1" parent="451">
                    <mxGeometry x="319.9154929577465" y="186.7924528301887" width="273.0985915492958" height="102.73584905660378" as="geometry"/>
                </mxCell>
                <mxCell id="461" value="&lt;font style=&quot;font-size: 26px;&quot;&gt;usb, RS232, modbus, telnet, PCIe, etc.&lt;/font&gt;" style="rounded=1;whiteSpace=wrap;html=1;strokeColor=#CC6600;strokeWidth=2;fontColor=#CC6600;" vertex="1" parent="451">
                    <mxGeometry x="54.61971830985916" y="401.6037735849057" width="187.2676056338028" height="93.39622641509435" as="geometry"/>
                </mxCell>
                <mxCell id="462" value="" style="endArrow=classic;startArrow=classic;html=1;rounded=0;entryX=0;entryY=0.5;entryDx=0;entryDy=0;exitX=0;exitY=0.5;exitDx=0;exitDy=0;strokeColor=#CC6600;strokeWidth=3;" edge="1" parent="451" source="461" target="456">
                    <mxGeometry width="50" height="50" relative="1" as="geometry">
                        <mxPoint x="358.9295774647888" y="158.77358490566036" as="sourcePoint"/>
                        <mxPoint x="397.94366197183103" y="112.0754716981132" as="targetPoint"/>
                        <Array as="points">
                            <mxPoint y="448.3018867924528"/>
                            <mxPoint y="98.06603773584904"/>
                        </Array>
                    </mxGeometry>
                </mxCell>
                <mxCell id="463" value="&lt;font style=&quot;font-size: 26px;&quot;&gt;config&lt;/font&gt;" style="rounded=1;whiteSpace=wrap;html=1;" vertex="1" parent="451">
                    <mxGeometry x="241.88732394366195" y="338.0943396226415" width="109.23943661971832" height="37.35849056603773" as="geometry"/>
                </mxCell>
                <mxCell id="464" value="&lt;font style=&quot;font-size: 26px;&quot;&gt;logs&lt;/font&gt;&lt;span style=&quot;color: rgba(0, 0, 0, 0); font-family: monospace; font-size: 0px; text-align: start; text-wrap: nowrap;&quot;&gt;%3CmxGraphModel%3E%3Croot%3E%3CmxCell%20id%3D%220%22%2F%3E%3CmxCell%20id%3D%221%22%20parent%3D%220%22%2F%3E%3CmxCell%20id%3D%222%22%20value%3D%22%26lt%3Bfont%20style%3D%26quot%3Bfont-size%3A%2026px%3B%26quot%3B%26gt%3Bconfig%26lt%3B%2Ffont%26gt%3B%22%20style%3D%22rounded%3D1%3BwhiteSpace%3Dwrap%3Bhtml%3D1%3B%22%20vertex%3D%221%22%20parent%3D%221%22%3E%3CmxGeometry%20x%3D%22-30%22%20y%3D%22740%22%20width%3D%22140%22%20height%3D%2240%22%20as%3D%22geometry%22%2F%3E%3C%2FmxCell%3E%3C%2Froot%3E%3C%2FmxGraphModel%3E&lt;/span&gt;" style="rounded=1;whiteSpace=wrap;html=1;" vertex="1" parent="451">
                    <mxGeometry x="366.7323943661972" y="338.0943396226415" width="109.23943661971832" height="37.35849056603773" as="geometry"/>
                </mxCell>
                <mxCell id="465" value="&lt;span style=&quot;font-size: 26px;&quot;&gt;telemetry&lt;/span&gt;" style="rounded=1;whiteSpace=wrap;html=1;" vertex="1" parent="451">
                    <mxGeometry x="491.57746478873236" y="338.0943396226415" width="109.23943661971832" height="37.35849056603773" as="geometry"/>
                </mxCell>
                <mxCell id="466" value="" style="shape=cylinder3;whiteSpace=wrap;html=1;boundedLbl=1;backgroundOutline=1;size=15;" vertex="1" parent="451">
                    <mxGeometry x="273.0985915492958" y="431.49056603773585" width="46.8169014084507" height="37.35849056603773" as="geometry"/>
                </mxCell>
                <mxCell id="467" value="" style="shape=cylinder3;whiteSpace=wrap;html=1;boundedLbl=1;backgroundOutline=1;size=15;" vertex="1" parent="451">
                    <mxGeometry x="273.0985915492958" y="412.8113207547169" width="46.8169014084507" height="37.35849056603773" as="geometry"/>
                </mxCell>
                <mxCell id="468" value="" style="shape=cylinder3;whiteSpace=wrap;html=1;boundedLbl=1;backgroundOutline=1;size=15;" vertex="1" parent="451">
                    <mxGeometry x="397.94366197183103" y="440.8301886792452" width="46.8169014084507" height="37.35849056603773" as="geometry"/>
                </mxCell>
                <mxCell id="469" value="" style="shape=cylinder3;whiteSpace=wrap;html=1;boundedLbl=1;backgroundOutline=1;size=15;" vertex="1" parent="451">
                    <mxGeometry x="397.94366197183103" y="431.49056603773585" width="46.8169014084507" height="37.35849056603773" as="geometry"/>
                </mxCell>
                <mxCell id="470" value="" style="shape=cylinder3;whiteSpace=wrap;html=1;boundedLbl=1;backgroundOutline=1;size=15;" vertex="1" parent="451">
                    <mxGeometry x="397.94366197183103" y="412.8113207547169" width="46.8169014084507" height="37.35849056603773" as="geometry"/>
                </mxCell>
                <mxCell id="471" value="" style="shape=cylinder3;whiteSpace=wrap;html=1;boundedLbl=1;backgroundOutline=1;size=15;" vertex="1" parent="451">
                    <mxGeometry x="522.7887323943663" y="440.8301886792452" width="46.8169014084507" height="37.35849056603773" as="geometry"/>
                </mxCell>
                <mxCell id="472" value="" style="shape=cylinder3;whiteSpace=wrap;html=1;boundedLbl=1;backgroundOutline=1;size=15;" vertex="1" parent="451">
                    <mxGeometry x="522.7887323943663" y="431.49056603773585" width="46.8169014084507" height="37.35849056603773" as="geometry"/>
                </mxCell>
                <mxCell id="473" value="" style="shape=cylinder3;whiteSpace=wrap;html=1;boundedLbl=1;backgroundOutline=1;size=15;" vertex="1" parent="451">
                    <mxGeometry x="522.7887323943663" y="412.8113207547169" width="46.8169014084507" height="37.35849056603773" as="geometry"/>
                </mxCell>
                <mxCell id="474" value="" style="endArrow=classic;html=1;rounded=0;exitX=0.5;exitY=0;exitDx=0;exitDy=0;exitPerimeter=0;entryX=0.5;entryY=1;entryDx=0;entryDy=0;" edge="1" parent="451" source="467" target="463">
                    <mxGeometry width="50" height="50" relative="1" as="geometry">
                        <mxPoint x="522.7887323943663" y="113.94339622641509" as="sourcePoint"/>
                        <mxPoint x="561.8028169014085" y="67.24528301886792" as="targetPoint"/>
                    </mxGeometry>
                </mxCell>
                <mxCell id="475" value="" style="endArrow=classic;html=1;rounded=0;exitX=0.5;exitY=1;exitDx=0;exitDy=0;entryX=0.5;entryY=0;entryDx=0;entryDy=0;entryPerimeter=0;" edge="1" parent="451" source="464" target="470">
                    <mxGeometry width="50" height="50" relative="1" as="geometry">
                        <mxPoint x="304.3098591549297" y="422.15094339622635" as="sourcePoint"/>
                        <mxPoint x="304.3098591549297" y="384.79245283018867" as="targetPoint"/>
                    </mxGeometry>
                </mxCell>
                <mxCell id="476" value="" style="endArrow=classic;html=1;rounded=0;exitX=0.5;exitY=1;exitDx=0;exitDy=0;entryX=0.5;entryY=0;entryDx=0;entryDy=0;entryPerimeter=0;" edge="1" parent="451" source="465" target="473">
                    <mxGeometry width="50" height="50" relative="1" as="geometry">
                        <mxPoint x="522.7887323943663" y="113.94339622641509" as="sourcePoint"/>
                        <mxPoint x="546.1971830985916" y="403.47169811320754" as="targetPoint"/>
                    </mxGeometry>
                </mxCell>
                <mxCell id="477" value="XWCApp" style="text;html=1;align=center;verticalAlign=middle;whiteSpace=wrap;rounded=0;fontSize=26;fontColor=#3399FF;" vertex="1" parent="451">
                    <mxGeometry x="78.02816901408451" width="85.83098591549296" height="28.0188679245283" as="geometry"/>
                </mxCell>
                <mxCell id="478" value="" style="edgeStyle=elbowEdgeStyle;elbow=vertical;endArrow=classic;html=1;curved=0;rounded=0;endSize=8;startSize=8;entryX=0.5;entryY=1;entryDx=0;entryDy=0;strokeColor=#FF00FF;strokeWidth=2;startArrow=classic;startFill=1;" edge="1" parent="347" target="418">
                    <mxGeometry width="50" height="50" relative="1" as="geometry">
                        <mxPoint x="1777.481690140845" y="345.5660377358494" as="sourcePoint"/>
                        <mxPoint x="1615.1830985915492" y="177.45283018867923" as="targetPoint"/>
                        <Array as="points">
                            <mxPoint x="1740.0281690140846" y="242.83018867924523"/>
                        </Array>
                    </mxGeometry>
                </mxCell>
                <mxCell id="479" value="" style="edgeStyle=elbowEdgeStyle;elbow=vertical;endArrow=classic;html=1;curved=0;rounded=0;endSize=8;startSize=8;startArrow=classic;startFill=1;strokeColor=#008700;strokeWidth=2;exitX=0.5;exitY=0;exitDx=0;exitDy=0;entryX=0.5;entryY=1;entryDx=0;entryDy=0;" edge="1" parent="347" source="431" target="417">
                    <mxGeometry width="50" height="50" relative="1" as="geometry">
                        <mxPoint x="2105.2000000000003" y="345.5660377358491" as="sourcePoint"/>
                        <mxPoint x="2496.9014084507044" y="177.45283018867923" as="targetPoint"/>
                        <Array as="points">
                            <mxPoint x="2629.5492957746483" y="261.50943396226415"/>
                        </Array>
                    </mxGeometry>
                </mxCell>
                <mxCell id="480" value="&lt;font style=&quot;font-size: 26px;&quot;&gt;Control Computer #2&lt;/font&gt;" style="text;html=1;align=center;verticalAlign=middle;whiteSpace=wrap;rounded=0;" vertex="1" parent="347">
                    <mxGeometry x="1474.7323943661977" y="56.0377358490566" width="202.87323943661977" height="28.0188679245283" as="geometry"/>
                </mxCell>
                <mxCell id="481" value="" style="endArrow=classic;startArrow=classic;html=1;rounded=0;exitX=0.5;exitY=0;exitDx=0;exitDy=0;entryX=1;entryY=0.5;entryDx=0;entryDy=0;" edge="1" parent="347" source="422" target="414">
                    <mxGeometry width="50" height="50" relative="1" as="geometry">
                        <mxPoint x="1997.5211267605637" y="-56.0377358490566" as="sourcePoint"/>
                        <mxPoint x="1868.7746478873241" y="56.03773584905702" as="targetPoint"/>
                        <Array as="points">
                            <mxPoint x="1868.7746478873241" y="28.0188679245283"/>
                        </Array>
                    </mxGeometry>
                </mxCell>
                <mxCell id="482" value="&lt;font color=&quot;#008700&quot; style=&quot;font-size: 26px;&quot;&gt;shmimTCP&lt;/font&gt;" style="rounded=1;whiteSpace=wrap;html=1;strokeColor=#008700;" vertex="1" parent="347">
                    <mxGeometry x="1217.2394366197188" y="186.7924528301887" width="124.84507042253523" height="65.37735849056604" as="geometry"/>
                </mxCell>
                <mxCell id="483" value="&lt;font color=&quot;#008700&quot; style=&quot;font-size: 26px;&quot;&gt;shmimTCP&lt;/font&gt;" style="rounded=1;whiteSpace=wrap;html=1;strokeColor=#008700;" vertex="1" parent="347">
                    <mxGeometry x="2629.5492957746483" y="186.7924528301887" width="124.84507042253523" height="65.37735849056604" as="geometry"/>
                </mxCell>
                <mxCell id="484" value="" style="endArrow=classic;startArrow=classic;html=1;strokeColor=#008700;fontSize=26;fontColor=#008700;entryX=1;entryY=0.5;entryDx=0;entryDy=0;exitX=0.5;exitY=0;exitDx=0;exitDy=0;strokeWidth=2;" edge="1" parent="347" source="482" target="349">
                    <mxGeometry width="50" height="50" relative="1" as="geometry">
                        <mxPoint x="1724.4225352112678" y="373.5849056603774" as="sourcePoint"/>
                        <mxPoint x="1763.4366197183099" y="326.8867924528301" as="targetPoint"/>
                        <Array as="points">
                            <mxPoint x="1279.661971830986" y="149.43396226415092"/>
                        </Array>
                    </mxGeometry>
                </mxCell>
                <mxCell id="485" value="" style="endArrow=classic;startArrow=classic;html=1;strokeColor=#008700;fontSize=26;fontColor=#008700;entryX=1;entryY=0.5;entryDx=0;entryDy=0;strokeWidth=2;" edge="1" parent="347" source="483" target="417">
                    <mxGeometry width="50" height="50" relative="1" as="geometry">
                        <mxPoint x="2691.9718309859163" y="186.7924528301887" as="sourcePoint"/>
                        <mxPoint x="2660.760563380282" y="149.43396226415092" as="targetPoint"/>
                        <Array as="points">
                            <mxPoint x="2691.9718309859163" y="149.43396226415092"/>
                        </Array>
                    </mxGeometry>
                </mxCell>
                <mxCell id="486" value="" style="endArrow=classic;html=1;strokeColor=default;fontSize=26;fontColor=#008700;entryX=0.75;entryY=0;entryDx=0;entryDy=0;exitX=0.72;exitY=0.007;exitDx=0;exitDy=0;exitPerimeter=0;startArrow=classic;startFill=1;strokeWidth=2;" edge="1" parent="347" source="482" target="483">
                    <mxGeometry relative="1" as="geometry">
                        <mxPoint x="2434.4788732394377" y="140.0943396226415" as="sourcePoint"/>
                        <mxPoint x="2512.5070422535214" y="140.0943396226415" as="targetPoint"/>
                        <Array as="points">
                            <mxPoint x="1306.9718309859152" y="56.0377358490566"/>
                            <mxPoint x="2075.5492957746483" y="56.0377358490566"/>
                            <mxPoint x="2723.1830985915494" y="56.0377358490566"/>
                        </Array>
                    </mxGeometry>
                </mxCell>
                <mxCell id="487" value="&lt;font&gt;P2P tcp/ip&lt;/font&gt;" style="edgeLabel;resizable=0;html=1;align=center;verticalAlign=middle;strokeColor=#008700;fontSize=26;fontColor=default;" connectable="0" vertex="1" parent="486">
                    <mxGeometry relative="1" as="geometry"/>
                </mxCell>
                <mxCell id="488" value="" style="edgeStyle=elbowEdgeStyle;elbow=vertical;endArrow=classic;html=1;curved=0;rounded=0;endSize=8;startSize=8;startArrow=classic;startFill=1;strokeColor=#008700;strokeWidth=2;entryX=0.5;entryY=1;entryDx=0;entryDy=0;" edge="1" parent="347" source="458" target="417">
                    <mxGeometry width="50" height="50" relative="1" as="geometry">
                        <mxPoint x="2184.7887323943664" y="382.92452830188677" as="sourcePoint"/>
                        <mxPoint x="2184.7887323943664" y="140.0943396226415" as="targetPoint"/>
                        <Array as="points">
                            <mxPoint x="2317.43661971831" y="261.50943396226415"/>
                        </Array>
                    </mxGeometry>
                </mxCell>
                <mxCell id="489" style="edgeStyle=orthogonalEdgeStyle;rounded=0;orthogonalLoop=1;jettySize=auto;html=1;exitX=1;exitY=0.5;exitDx=0;exitDy=0;entryX=0;entryY=0.5;entryDx=0;entryDy=0;startArrow=classic;startFill=1;strokeWidth=2;" edge="1" parent="347" source="418" target="422">
                    <mxGeometry relative="1" as="geometry"/>
                </mxCell>
                <mxCell id="490" value="" style="edgeStyle=elbowEdgeStyle;elbow=vertical;endArrow=classic;html=1;curved=0;rounded=0;endSize=8;startSize=8;startArrow=classic;startFill=1;strokeColor=#008700;strokeWidth=2;entryX=0.5;entryY=1;entryDx=0;entryDy=0;" edge="1" parent="347" source="391" target="349">
                    <mxGeometry width="50" height="50" relative="1" as="geometry">
                        <mxPoint x="772.4788732394367" y="382.92452830188677" as="sourcePoint"/>
                        <mxPoint x="772.4788732394367" y="140.0943396226415" as="targetPoint"/>
                        <Array as="points">
                            <mxPoint x="905.1267605633805" y="261.50943396226415"/>
                        </Array>
                    </mxGeometry>
                </mxCell>
                <mxCell id="491" value="" style="endArrow=classic;startArrow=classic;html=1;fontSize=25;entryX=0.5;entryY=1;entryDx=0;entryDy=0;" edge="1" parent="1" source="414" target="3">
                    <mxGeometry width="50" height="50" relative="1" as="geometry">
                        <mxPoint x="800" y="880" as="sourcePoint"/>
                        <mxPoint x="850" y="830" as="targetPoint"/>
                    </mxGeometry>
                </mxCell>
                <mxCell id="494" value="" style="html=1;outlineConnect=0;fillColor=#CCCCCC;strokeColor=#6881B3;gradientColor=none;gradientDirection=north;strokeWidth=2;shape=mxgraph.networks.comm_link_edge;html=1;fontSize=10;" edge="1" parent="1">
                    <mxGeometry width="100" height="100" relative="1" as="geometry">
                        <mxPoint x="-350" y="500" as="sourcePoint"/>
                        <mxPoint x="10" y="400" as="targetPoint"/>
                        <Array as="points">
                            <mxPoint x="-580" y="220"/>
                            <mxPoint x="-340" y="280"/>
                        </Array>
                    </mxGeometry>
                </mxCell>
            </root>
        </mxGraphModel>
    </diagram>
</mxfile>